<?xml version="1.0" encoding="UTF-8"?>
<svg id="Layer_1" data-name="Layer 1" xmlns="http://www.w3.org/2000/svg" viewBox="0 0 247.3 231.66">
  <defs>
    <style>
      .cls-1 {
        fill: none;
        stroke: #2e735b;
        stroke-linecap: round;
        stroke-linejoin: round;
        stroke-width: 4px;
      }
    </style>
  </defs>
  <g>
    <line class="cls-1" x1="38.92" y1="114.81" x2="38.92" y2="124.24"/>
    <line class="cls-1" x1="69.77" y1="114.81" x2="69.77" y2="121.52"/>
    <circle class="cls-1" cx="38.92" cy="128.14" r="3.34"/>
    <path class="cls-1" d="M40.86,84.34s-1.55-12.51,7.14-15.77,14.61,.68,14.61,.68c0,0,1.87,4.03,4.61,6.13,2.52,1.93,1.5,10.78,0,11.1-1.32,.28-5.29-2.02-5.99-5.31-.11-.51-.71-.72-1.08-.36-1.53,1.47-4.67,3.91-8.28,3.52-5.11-.56-2.39-2.04-11.01,0h0Z"/>
    <path class="cls-1" d="M40.95,83.05l.74,4.41s-1.86,.86-1.93,2.37,2.55,5.48,2.55,5.48c0,0,1.69,12.14,12.46,12.71s11.21-10.08,11.21-10.08c0,0,.41-4.1,1.9-4.6s1.45-4.75,.37-5.33c-1.09-.58-.52,.52-1.01-.55-.49-1.06,.9-2.19,.9-2.19"/>
    <polyline class="cls-1" points="50.91 122.52 56.55 112.9 52.31 112.9 58.29 122.66"/>
    <path class="cls-1" d="M67.54,131.45c-1.83,.33-2.66-2.26-2.66-2.26v-5.24c0-.95,.67-1.76,1.6-1.94l3.08-.61,3.08,.61c.93,.18,1.6,1,1.6,1.94v5.09s.44,1.77-1.97,2.29"/>
    <g>
      <g>
        <path class="cls-1" d="M99.62,181.48l2.29-32.23c.31-4.23,1.91-8.32,4.87-11.37,3.38-3.49,8.12-5.58,13.18-5.49,4.52,.06,8.74,1.86,11.91,4.82,3.34,3.11,5.22,7.5,5.54,12.06,.78,10.73,1.57,21.47,2.34,32.2"/>
        <path class="cls-1" d="M150.26,198.26h4.05v-10.22l-4.05-6.56h-61.09l-4.05,6.56v10.22h65.14Z"/>
        <line class="cls-1" x1="85.13" y1="188.03" x2="154.31" y2="188.03"/>
        <circle class="cls-1" cx="119.67" cy="153.98" r="6.4"/>
        <polyline class="cls-1" points="191.84 146.92 188.26 147.26 180.97 147.94 137.59 151.96 125.99 153.04"/>
        <path class="cls-1" d="M113.3,154.21l-11.82,1.1-42.85,3.97-6.92,.64c-.06,0-.12,0-.18,0l-4.65,.44"/>
        <g>
          <path class="cls-1" d="M181.09,140.28h6.84c1.03,0,1.86,.83,1.86,1.86v3.28c0,.96-.73,1.76-1.69,1.85l-6.92,.64c-1.12,.1-2.07-.8-2.03-1.92l.08-3.92c.04-1,.86-1.79,1.86-1.79h0Z"/>
          <path class="cls-1" d="M213.57,127.98c.13,.14,.21,.28,.24,.44,.69,3.31-13.66,11.47-29.11,11.87-16.78,.44-32.5-8.34-32-11.81"/>
          <line class="cls-1" x1="149.61" y1="128.51" x2="217.83" y2="127.94"/>
        </g>
        <g>
          <path class="cls-1" d="M51.58,152.67l6.2,.06c1.38,0,2.49,1.14,2.48,2.53v.95c0,1.49-.74,3-1.7,3.08l-7.03,.65c-1.12,.09-1.97-.84-1.92-1.96l.1-3.53c.05-1,.88-1.78,1.88-1.77h-.01Z"/>
          <path class="cls-1" d="M84.94,140.66c.13,.14,.2,.28,.24,.44,.66,3.32-13.77,11.33-29.23,11.58-16.78,.27-32.42-8.66-31.88-12.12"/>
          <line class="cls-1" x1="20.97" y1="140.56" x2="89.19" y2="140.66"/>
        </g>
      </g>
      <path class="cls-1" d="M23.25,134.02l1.53-9.84s.84-7.83,9.86-9.37c9.01-1.53,10-1.39,10-1.39v-2.41l8.98,16.51-1.1,6.49,10.27-20.28,1.2-2.36-1.2,2.36s9.6-1.24,16.47,3.94c2.68,2.02,4.41,5.04,5.04,8.33l1.59,8.3"/>
      <g>
        <path class="cls-1" d="M172.33,71.51l-1.48-7.48s-.26-4.7,4.52-4.35c0,0-.96-6.52,6.52-5.48,7.48,1.04,13.83,2.61,13.83,2.61,0,0,4,1.39,2.52,8.44l-1.22,5.57-.09,7.91s-1.48,10.18-11.74,10.96c-10.26,.78-12.7-10.7-12.7-10.7l-.17-7.48h0Z"/>
        <polyline class="cls-1" points="172.34 71.91 176.68 67.6 176.68 64.99 192.77 64.99 192.77 67.34 197.02 71.91"/>
        <line class="cls-1" x1="178.05" y1="87.81" x2="178.05" y2="92.91"/>
        <line class="cls-1" x1="191.55" y1="87.52" x2="191.55" y2="92.91"/>
        <path class="cls-1" d="M209.32,121.26v-14.52s-.87-4.09-5.31-5.83-7.65-4.72-7.65-4.72l-3.13-3.28-8.52,3.28h-.03l-8.52-3.28-3.13,3.28s-3.22,2.98-7.65,4.72c-4.44,1.74-5.31,5.83-5.31,5.83v14.52"/>
        <polyline class="cls-1" points="173.02 96.19 178.05 103.35 184.68 96.19 191.03 103.35 196.36 96.19"/>
        <path class="cls-1" d="M166.76,107.77c.95,.79,2.31,2.14,3.31,4.18,2.02,4.13,1.11,8.11,.78,9.31"/>
        <path class="cls-1" d="M203.15,107.77c-.95,.79-2.31,2.14-3.31,4.18-2.02,4.13-1.11,8.11-.78,9.31"/>
        <g>
          <line class="cls-1" x1="180.34" y1="101.52" x2="180.34" y2="121.26"/>
          <line class="cls-1" x1="189.04" y1="101.52" x2="189.04" y2="121.26"/>
        </g>
      </g>
    </g>
  </g>
  <path class="cls-1" d="M91.34,204.12c8.84,2.85,18.27,4.39,28.06,4.39,8.8,0,17.32-1.24,25.37-3.57"/>
  <path class="cls-1" d="M47.03,61.24c16.71-21.63,42.91-35.56,72.37-35.56,21.95,0,42.09,7.73,57.84,20.62"/>
  <path class="cls-1" d="M37.91,158.54c8.6,16.89,22.3,30.75,39.07,39.55"/>
  <path class="cls-1" d="M162.58,197.69c21.55-11.57,37.93-31.53,44.75-55.51"/>
</svg>