<?xml version="1.0" encoding="UTF-8"?>
<svg id="Layer_1" data-name="Layer 1" xmlns="http://www.w3.org/2000/svg" viewBox="0 0 164.48 61.4">
  <defs>
    <style>
      .cls-1 {
        fill: #fff;
      }
    </style>
  </defs>
  <g>
    <path class="cls-1" d="M25.76,21.46c.05,6.94-5.57,12.61-12.52,12.66-2.35,0-4.79-.68-6.4-2.69v12.08H0V9h6.84v2.64c1.32-1.71,3.96-2.64,6.26-2.69,6.94-.05,12.61,5.57,12.66,12.52ZM19.36,21.51c0-1.66-.64-3.23-1.81-4.4-1.17-1.12-2.74-1.76-4.4-1.76s-3.23.64-4.4,1.81c-1.17,1.22-1.81,2.74-1.81,4.4.05,1.66.68,3.23,1.86,4.4,1.17,1.17,2.74,1.81,4.4,1.81,1.66-.05,3.23-.68,4.4-1.86,1.17-1.17,1.81-2.74,1.76-4.4Z"/>
    <path class="cls-1" d="M43.36,8.51v6.99c-5.28,0-8.51,4.25-8.51,7.48v11.15h-6.84V8.95h6.84v3.76c1.12-3.13,3.42-4.21,8.51-4.21Z"/>
    <path class="cls-1" d="M52.36,5.82h-6.8V.05h6.8v5.77ZM52.4,34.12h-6.84V9h6.84v25.13Z"/>
    <path class="cls-1" d="M97.82,20.97v13.15h-6.36v-12.71c-.05-1.61-1.12-6.16-5.77-6.16-4.99,0-5.67,4.6-5.67,6.26v12.61h-6.4v-12.71c0-1.61-1.12-6.16-5.72-6.16-5.04,0-5.72,4.6-5.72,6.26v12.61h-6.84V8.85h6.84v2.64c1.91-2.05,3.91-2.59,6.16-2.59,3.62-.05,6.84,1.61,8.95,4.25l2.05-1.91c2.3-1.86,4.6-2.35,6.8-2.35,6.5-.05,11.68,4.06,11.68,12.08Z"/>
    <path class="cls-1" d="M125,23.86l-18.38-.05c.34.98.68,1.42,1.42,2.15,1.22,1.17,2.79,1.81,4.4,1.81,1.66-.05,3.23-.68,4.4-1.86l.2-.2,6.36,2c-2.64,4.06-5.43,6.36-10.9,6.4-6.94.05-12.61-5.57-12.66-12.52s5.57-12.61,12.52-12.66,12.61,5.57,12.66,12.52c0,.34.05,2.05,0,2.4ZM107.99,17.16c-.54.59-1.03,1.27-1.32,2.05h11.49c-.29-.78-.78-1.47-1.37-2.1-1.17-1.12-2.74-1.76-4.4-1.76s-3.23.64-4.4,1.81Z"/>
    <path class="cls-1" d="M147.24,34.12v-2.88c-2.15,1.76-4.94,2.88-7.97,2.88-6.94.05-12.61-5.57-12.66-12.52s5.57-12.61,12.52-12.66c3.08,0,5.87,1.08,8.07,2.88V0h6.84l.05,34.12h-6.84ZM145.43,21.51c-.05-1.66-.68-3.23-1.86-4.4-1.17-1.12-2.74-1.76-4.4-1.76s-3.23.64-4.4,1.81c-1.12,1.22-1.81,2.74-1.76,4.4,0,1.66.64,3.23,1.81,4.4,1.17,1.17,2.74,1.81,4.4,1.81,1.66-.05,3.23-.68,4.4-1.86s1.81-2.74,1.81-4.4Z"/>
    <path class="cls-1" d="M157.02,34.12v-6.84h6.84v6.84h-6.84Z"/>
  </g>
  <g>
    <path class="cls-1" d="M113.15,56.59l2.13,1.05c-1.35,2.3-3.75,3.75-6.7,3.75-4.67,0-7.85-3.72-7.85-8.36s3.18-8.42,7.81-8.42c2.98,0,5.38,1.52,6.73,3.82l-2.13,1.01c-.98-1.49-2.57-2.47-4.6-2.47-3.31,0-5.34,2.71-5.34,6.05s2.03,5.99,5.38,5.99c2,0,3.59-.91,4.57-2.44Z"/>
    <path class="cls-1" d="M119.75,35.79v25.37h-2.44v-25.37h2.44Z"/>
    <path class="cls-1" d="M122.79,40.39c0-.78.61-1.39,1.35-1.39s1.39.61,1.39,1.39-.61,1.35-1.39,1.35-1.35-.61-1.35-1.35ZM122.93,44.85h2.47v16.31h-2.47v-16.31Z"/>
    <path class="cls-1" d="M141.94,52.16v9h-2.44v-9c0-3.55-1.52-5.11-4.16-5.11s-4.33,1.73-4.33,5.31v8.8h-2.44v-16.31h2.44v1.89c1.15-1.32,2.74-2.13,4.74-2.13,3.21,0,6.19,1.56,6.19,7.54Z"/>
    <path class="cls-1" d="M144.99,40.39c0-.78.61-1.39,1.35-1.39s1.39.61,1.39,1.39-.61,1.35-1.39,1.35-1.35-.61-1.35-1.35ZM145.13,44.85h2.47v16.31h-2.47v-16.31Z"/>
    <path class="cls-1" d="M162.35,56.59l2.13,1.05c-1.35,2.3-3.75,3.75-6.7,3.75-4.67,0-7.85-3.72-7.85-8.36s3.18-8.42,7.81-8.42c2.98,0,5.38,1.52,6.73,3.82l-2.13,1.01c-.98-1.49-2.57-2.47-4.6-2.47-3.31,0-5.34,2.71-5.34,6.05s2.03,5.99,5.38,5.99c2,0,3.59-.91,4.57-2.44Z"/>
  </g>
</svg>