<?xml version="1.0" encoding="UTF-8"?>
<svg id="Layer_1" data-name="Layer 1" xmlns="http://www.w3.org/2000/svg" viewBox="0 0 247.3 231.66">
  <defs>
    <style>
      .cls-1 {
        fill: none;
        stroke: #2e735b;
        stroke-linecap: round;
        stroke-linejoin: round;
        stroke-width: 4px;
      }
    </style>
  </defs>
  <g>
    <path class="cls-1" d="M180.73,95.78l-.23,.14c-.29,.16-.59,.32-.9,.47-.62,.31-1.29,.59-2,.84-.09,.03-.18,.06-.28,.09-.63,.2-1.31,.37-2.03,.5-.07,.01-.15,.03-.23,.04l-.09,.02c-3.85,.62-7.74-.74-10.36-3.62l-3-3.3c-1.09-1.39,0-2.77,0-2.77,0,0,7.18-6.43,9.35-8.41,2.16-1.97,3.67,0,3.67,0,1.43,1.41,2.9,2.15,4.27,2.48,.66,.16,1.3,.23,1.9,.23h.09c.1,0,.2,0,.3-.01,.66-.02,1.26-.12,1.79-.26,.33-.07,.63-.16,.89-.25,.73-.26,1.16-.51,1.16-.51l6.82-6.82,1.1-1.1,1.29-1.29,2.17-2.17c.31-.32,.58-.64,.8-.97,2.58-3.63,.03-7.27-1.61-8.76-1.78-1.62,.11-3.56,.11-3.56,0,0,5.4-6.11,7.84-8.71,2.43-2.59,4.32-.21,4.32-.21,.93,.89,1.86,1.78,2.78,2.68,1.89,1.82,2.94,4.31,2.94,6.88,0,.57-.05,1.15-.16,1.72-.62,3.32-2.1,5.61-3.24,7.31-.48,.72-.97,1.43-1.46,2.13-.66,.94-1.33,1.86-2.02,2.77-.46,.61-.92,1.21-1.4,1.81-.08,.11-.16,.21-.25,.32-.3,.38-.61,.76-.93,1.14-.12,.17-.26,.33-.4,.5-.3,.37-.61,.74-.94,1.1-2.28,2.7-4.72,5.27-7.27,7.71-.57,.56-1.15,1.11-1.74,1.64-2.79,2.56-5.72,4.98-8.76,7.25-.39,.29-.79,.58-1.19,.87-.09,.07-.18,.13-.27,.2-.05,.03-.1,.07-.17,.12-.58,.42-1.19,.86-1.87,1.28l-.11,.07c-.26,.16-.91,.55-.91,.55"/>
    <path class="cls-1" d="M168.74,61.6h-16.26c-1.69,0-3.07-1.37-3.07-3.07v-21.97c0-1.69,1.37-3.07,3.07-3.07h32.86c1.69,0,3.07,1.37,3.07,3.07v21.97c0,1.69-1.37,3.07-3.07,3.07h-3.96v8.32l-8.32-8.32"/>
    <line class="cls-1" x1="159.02" y1="47.87" x2="161.82" y2="47.87"/>
    <line class="cls-1" x1="167.92" y1="47.87" x2="170.72" y2="47.87"/>
    <line class="cls-1" x1="176.81" y1="47.87" x2="179.62" y2="47.87"/>
  </g>
  <path class="cls-1" d="M125.05,161.84c-.14,11.8,9.35,13.21,9.35,13.21l3.81,.6c3.7,.59,7.41,1.17,11.14,1.57,12.15,1.31,12.47,8.12,12.47,8.12l1.62,19.63H63.11l1.87-19.82s.32-6.81,12.47-8.12c3.73-.4,7.44-.98,11.15-1.57l3.81-.6s9.25-1.38,9.34-12.79"/>
  <polyline class="cls-1" points="100.48 168.39 113.03 173.78 126.23 168.39"/>
  <polyline class="cls-1" points="95.42 173.78 104.79 182.63 113.03 173.78 121.63 182.63 130.13 173.78"/>
  <line class="cls-1" x1="89.47" y1="175.33" x2="109.63" y2="204.97"/>
  <line class="cls-1" x1="136.54" y1="175.33" x2="116.45" y2="204.97"/>
  <polyline class="cls-1" points="106.67 200.63 113.03 181.64 119.03 200.63"/>
  <polyline class="cls-1" points="108.75 178.21 113.03 181.64 117.39 178.27"/>
  <rect class="cls-1" x="83.35" y="118.1" width="7.13" height="25.51" rx="1.96" ry="1.96"/>
  <path class="cls-1" d="M83.46,142.32c-.56-.37-6.12-4.18-6.27-11.1-.16-7.29,5.82-11.39,6.27-11.69,0,0,2.59-30.36,30.17-30.3s29.4,30.3,29.4,30.3c.45,.3,6.44,4.4,6.27,11.69-.15,6.92-5.72,10.73-6.27,11.1"/>
  <rect class="cls-1" x="136.02" y="118.11" width="7.13" height="25.51" rx="1.96" ry="1.96"/>
  <path class="cls-1" d="M89.27,118.26s.23-14.15,11.53-13.32c0,0,3.28-.43,5.12,1.73s10.96,3.25,15.31,.06c0,0,2.62-2.68,4.79-2.49s10.66,.24,11.97,13.87"/>
  <path class="cls-1" d="M83.46,119.53s-.91-27.11,4.83-33.55c0,0,.57,1.63,2.91,1.16s24.79-9.47,32.85-.48c0,0,11.73-3.12,16.64,8.98s2.45,24.43,2.45,24.43"/>
  <path class="cls-1" d="M116.26,165.66s0-.01-.01-.02"/>
  <path class="cls-1" d="M88.51,143.61s-.49,6.53,14.67,19.74c0,0,3.01,2.47,7.1,2.29"/>
  <path class="cls-1" d="M110.28,165.64v.02"/>
  <path class="cls-1" d="M138.01,143.61s.5,6.53-14.66,19.74c0,0-3.01,2.47-7.1,2.29-.35-.01-.72-.04-1.09-.1-.32-.05-.62-.1-.9-.13-.68-.09-1.36-.08-2.05,0-.26,.03-.54,.07-.84,.12-.37,.06-.74,.09-1.09,.1"/>
  <path class="cls-1" d="M142.27,143.61s.47,8.21-16.41,12.56"/>
  <path class="cls-1" d="M113.17,152.84h9.71c1.6,0,2.89,1.29,2.89,2.89h0c0,1.59-1.29,2.89-2.89,2.89h-9.71c-1.6,0-2.89-1.29-2.89-2.89h0c0-1.59,1.29-2.89,2.89-2.89Z"/>
  <path class="cls-1" d="M59.61,177.57c-15.27-16.33-24.61-38.27-24.61-62.39,0-50.49,40.93-91.42,91.42-91.42,9.08,0,17.84,1.32,26.12,3.79"/>
  <path class="cls-1" d="M210.59,79.44c4.67,10.98,7.25,23.06,7.25,35.74,0,35.06-19.73,65.5-48.7,80.84"/>
</svg>