<?xml version="1.0" encoding="UTF-8"?>
<svg id="Layer_1" data-name="Layer 1" xmlns="http://www.w3.org/2000/svg" viewBox="0 0 247.3 231.66">
  <defs>
    <style>
      .cls-1 {
        fill: none;
        stroke: #2e735b;
        stroke-linecap: round;
        stroke-linejoin: round;
        stroke-width: 4px;
      }
    </style>
  </defs>
  <g>
    <rect class="cls-1" x="51.7" y="193.96" width="129.7" height="11.91"/>
    <path class="cls-1" d="M67.53,193.96v-35.23s0-9.02,9.53-11.57,29.49-5.96,29.49-5.96v-6.81"/>
    <path class="cls-1" d="M166.76,193.96v-35.23s0-9.02-9.53-11.57-29.49-5.96-29.49-5.96v-6.81"/>
    <path class="cls-1" d="M106.55,141.19c1.38,5.2,6.21,8.68,11.34,8.34,4.62-.31,8.64-3.67,9.85-8.34"/>
    <path class="cls-1" d="M147.23,157.19c6.7,.17,4.53,6.98,4.53,6.98l-9.36,29.79h-50.53l-9.36-29.79s-2.17-6.81,4.53-6.98h60.19Z"/>
    <ellipse class="cls-1" cx="116.55" cy="176.25" rx="11.05" ry="7.38"/>
    <path class="cls-1" d="M86.18,101.8c-.51,10.1,5.02,17.73,7.39,21.01,2.98,4.11,10.75,14.85,23.15,14.98,12.38,.13,20.39-10.43,22.81-13.62,1.76-2.31,8.25-10.88,7.39-22.37-1.03-13.66-12.39-30.36-30.37-30.37-17.96,0-29.68,16.66-30.37,30.37h0Z"/>
    <path class="cls-1" d="M86.72,108.52c2.88,.21,19.05,1.14,32.05-10.9,8.89-8.23,11.54-18.12,12.36-22.03"/>
    <path class="cls-1" d="M125.69,89.18c.18,1.7,1.07,8.24,6.69,13.54,5.55,5.24,12.06,5.82,14.22,5.89"/>
    <path class="cls-1" d="M137.94,71.86c3.56-12.56,15.12-21.76,28.82-21.76,16.56,0,29.98,13.42,29.98,29.98s-13.42,29.97-29.98,29.97c-5.32,0-10.32-1.39-14.66-3.83"/>
    <circle class="cls-1" cx="166.76" cy="80.07" r="2.24"/>
    <polyline class="cls-1" points="174.42 90.13 166.76 80.07 182.08 64.76"/>
  </g>
  <path class="cls-1" d="M177.9,186.73c19.95-16.68,32.64-41.75,32.64-69.78,0-11-1.95-21.54-5.53-31.3h0"/>
  <path class="cls-1" d="M58.49,184.15c-18.24-16.62-29.69-40.58-29.69-67.2,0-50.19,40.68-90.87,90.87-90.87,19.25,0,37.09,5.98,51.78,16.19"/>
</svg>