<?xml version="1.0" encoding="UTF-8"?>
<svg id="Layer_1" data-name="Layer 1" xmlns="http://www.w3.org/2000/svg" viewBox="0 0 237.52 240.93">
  <defs>
    <style>
      .cls-1, .cls-2 {
        fill: none;
      }

      .cls-2 {
        stroke: #2e735b;
        stroke-linecap: round;
        stroke-linejoin: round;
        stroke-width: 4px;
      }
    </style>
  </defs>
  <g>
    <path class="cls-2" d="M112.42,164.14h0c-.02,2.3-.44,4.13-1.09,5.59-1.12,2.53-2.89,3.97-4.37,4.77-1.44,.78-2.6,.96-2.6,.96l-2.53,.41-.76,.12c-3.2,.52-6.4,1.03-9.61,1.39-10.49,1.15-10.76,7.18-10.76,7.18l-1.3,14.15"/>
    <path class="cls-2" d="M132.51,163.94c-.03,2.38,.38,4.27,1.02,5.79,2.16,5.15,7.05,5.89,7.05,5.89l1.81,.29,1.48,.24c3.19,.53,6.39,1.04,9.6,1.39,10.49,1.16,10.76,7.19,10.76,7.19l1.18,14.61"/>
    <polyline class="cls-2" points="157.66 202.09 125.11 202.09 119.2 202.09 87.92 202.09"/>
    <polyline class="cls-2" points="111.33 169.74 122.15 174.51 133.54 169.74"/>
    <polyline class="cls-2" points="106.96 174.51 115.04 182.33 122.15 174.51 129.57 182.33 136.9 174.51"/>
    <line class="cls-2" x1="101.83" y1="175.87" x2="119.21" y2="202.1"/>
    <line class="cls-2" x1="142.42" y1="175.87" x2="125.1" y2="202.1"/>
    <polyline class="cls-2" points="116.66 198.26 122.15 181.46 127.32 198.26"/>
    <polyline class="cls-2" points="118.46 178.42 122.15 181.46 125.91 178.47"/>
    <path class="cls-2" d="M96.64,125.38s.25-12.52,12.31-11.79c0,0,3.51-.38,5.47,1.53s11.71,2.87,16.34,.05c0,0,2.79-2.37,5.11-2.2s11.38,.21,12.78,12.27"/>
    <path class="cls-2" d="M148.13,126.98s.03-.12,.07-.36c.31-1.97,1.6-11.7-2.18-21.25-4.24-10.71-14.35-7.94-14.35-7.94-6.95-7.95-26.31,0-28.34,.42-2.02,.42-2.51-1.03-2.51-1.03-4.96,5.7-4.17,29.68-4.17,29.68"/>
    <path class="cls-2" d="M124.93,167.32v-.02"/>
    <path class="cls-2" d="M119.77,167.3v.02"/>
    <path class="cls-2" d="M148.2,126.62c.97,.71,5.37,4.26,5.24,10.23-.13,6.13-4.93,9.49-5.41,9.82l-4.34,1.14s.43,5.78-12.65,17.46c0,0-2.6,2.19-6.12,2.03-.3,0-.62-.04-.94-.09-.28-.04-.53-.08-.78-.12-.6-.08-1.18-.07-1.77,0-.22,.03-.47,.06-.72,.11-.32,.05-.64,.08-.94,.09-3.53,.16-6.12-2.03-6.12-2.03-13.08-11.69-12.65-17.46-12.65-17.46l-4.36-1.14c-.47-.33-5.28-3.69-5.41-9.82-.14-6.45,5.02-10.08,5.41-10.34"/>
  </g>
  <path class="cls-2" d="M169.15,57.44c-1.66-5.27-6.59-9.1-12.41-9.1H89.03c-7.2,0-13.02,5.82-13.02,13.01v127.73c0,7.19,5.82,13.02,13.02,13.02h67.71c7.19,0,13.01-5.83,13.01-13.02v-41.79"/>
  <g>
    <rect class="cls-2" x="41.93" y="143.92" width="19.81" height="8.41" rx="1.38" ry="1.38"/>
    <rect class="cls-2" x="38.86" y="159.12" width="25.95" height="41.2" rx="3.8" ry="3.8"/>
    <rect class="cls-2" x="46.2" y="169.28" width="18.61" height="20.88" rx="1.72" ry="1.72"/>
    <line class="cls-2" x1="45.32" y1="152.34" x2="45.32" y2="159.12"/>
    <line class="cls-2" x1="57.11" y1="152.34" x2="57.11" y2="159.12"/>
  </g>
  <g>
    <line class="cls-2" x1="169.84" y1="64.67" x2="169.84" y2="75.44"/>
    <path class="cls-2" d="M169.31,75.44h1.06c2.72,0,4.94,2.21,4.94,4.94v.79h-10.93v-.79c0-2.72,2.21-4.94,4.94-4.94h-.01Z"/>
    <rect class="cls-2" x="160.35" y="81.17" width="18.97" height="46.36" rx="2.11" ry="2.11"/>
    <line class="cls-2" x1="165.57" y1="139.93" x2="165.57" y2="127.53"/>
    <line class="cls-2" x1="173.82" y1="139.93" x2="173.82" y2="127.53"/>
    <line class="cls-2" x1="161.74" y1="139.92" x2="177.93" y2="139.92"/>
    <g>
      <line class="cls-2" x1="179.33" y1="87.94" x2="172.4" y2="87.94"/>
      <line class="cls-2" x1="179.33" y1="96.14" x2="170.66" y2="96.14"/>
      <line class="cls-2" x1="179.33" y1="104.35" x2="168.74" y2="104.35"/>
      <line class="cls-2" x1="179.33" y1="112.56" x2="170.66" y2="112.56"/>
      <line class="cls-2" x1="179.33" y1="120.76" x2="172.32" y2="120.76"/>
    </g>
  </g>
  <path class="cls-2" d="M180.61,189.16c20.09-16.64,32.88-41.78,32.88-69.89,0-50.1-40.61-90.71-90.7-90.71S32.08,69.17,32.08,119.27c0,7.77,.98,15.32,2.82,22.51"/>
  <path class="cls-1" d="M177.18,184.02c2.87,4.16,5.58,8.42,8.13,12.78"/>
  <path class="cls-1" d="M25.1,147.33c5.61-2.64,10.9-5.98,15.69-9.92"/>
  <rect class="cls-2" x="110.74" y="54.77" width="22.99" height="5.14" rx="2.24" ry="2.24"/>
</svg>