<?xml version="1.0" encoding="UTF-8"?>
<svg id="Layer_1" data-name="Layer 1" xmlns="http://www.w3.org/2000/svg" viewBox="0 0 247.3 231.66">
  <defs>
    <style>
      .cls-1 {
        fill: none;
        stroke: #2e735b;
        stroke-linecap: round;
        stroke-linejoin: round;
        stroke-width: 4px;
      }
    </style>
  </defs>
  <g>
    <g>
      <path class="cls-1" d="M47.09,149.78h15.91c2.9,0,5.25,2.35,5.25,5.25v25.29c0,2.9-2.35,5.25-5.25,5.25h-15.91"/>
      <path class="cls-1" d="M68.25,155.03s24.16-5.7,40.01,7.51h14.72c3.76-.12,6.86,2.66,7.17,5.94,.36,3.7-2.89,7.35-7.17,7.27h-24.91"/>
      <path class="cls-1" d="M136.95,169.71l16.23-4.93c3.28-.99,5.76-.33,6.61,1.82,.8,2.04-.47,3.99-3.21,5.76-9.28,5.11-18.56,10.22-27.84,15.33-5.76,3.17-12.17,5.1-18.75,5.32-4.2,.14-8.11-.64-12.61-2.16-9.79-3.29-19.42-7.02-29.12-10.53"/>
    </g>
    <path class="cls-1" d="M196.23,86.78h-15.91c-2.9,0-5.25-2.35-5.25-5.25v-25.29c0-2.9,2.35-5.25,5.25-5.25h15.91"/>
    <path class="cls-1" d="M148.06,67.03c-4.07,1.34-8.13,2.68-12.2,4.03-3.82,1.26-2.81,1.17-6.63,2.43-4.09,1.25-6.03,5.74-4.53,9.15,1.33,3.02,5.15,4.68,8.68,3.39l7.04-2.56,2.11-.7c11.95,4.71,24.65,1.45,32.54-1.68"/>
    <path class="cls-1" d="M121.25,59.89c3.08-2.3,6.46-4.17,10.08-5.51,3.94-1.45,7.9-1.93,12.65-1.9,10.32,.05,20.63,.57,30.95,.85"/>
    <path class="cls-1" d="M140.42,83.47c.14,1.09,.2,2.19,.2,3.31,0,15.66-12.68,28.34-28.34,28.34s-28.34-12.68-28.34-28.34,12.69-28.34,28.34-28.34c9.84,0,18.51,5.01,23.58,12.62"/>
  </g>
  <g>
    <path class="cls-1" d="M49.64,123.51s-9.01-20.77,13.2-28.26c0,0-5.1,12.65-.44,20.16l7.2-4.58-4.93,22.43-21.82-5.43,6.79-4.31h0Z"/>
    <path class="cls-1" d="M177.71,112.79s2.92,22.46-20.5,23.51c0,0,8.4-10.75,6-19.25l-8.19,2.41,10.94-20.19,19.46,11.26-7.72,2.27h0Z"/>
  </g>
  <path class="cls-1" d="M189.16,59.31c12.2,15.42,19.48,34.9,19.48,56.09,0,49.97-40.51,90.48-90.49,90.48-18.36,0-35.45-5.47-49.72-14.88"/>
  <path class="cls-1" d="M51.39,176.47c-14.74-16.1-23.73-37.54-23.73-61.07,0-49.98,40.52-90.49,90.49-90.49,21.09,0,40.49,7.21,55.88,19.31"/>
</svg>