<?xml version="1.0" encoding="UTF-8"?>
<svg id="Layer_1" data-name="Layer 1" xmlns="http://www.w3.org/2000/svg" viewBox="0 0 237.52 240.93">
  <defs>
    <style>
      .cls-1 {
        stroke-width: 3px;
      }

      .cls-1, .cls-2, .cls-3, .cls-4 {
        fill: none;
        stroke: #2e735b;
      }

      .cls-1, .cls-2, .cls-4 {
        stroke-linecap: round;
        stroke-linejoin: round;
      }

      .cls-2 {
        stroke-width: 2px;
      }

      .cls-3 {
        stroke-miterlimit: 10;
      }

      .cls-3, .cls-4 {
        stroke-width: 4px;
      }
    </style>
  </defs>
  <path class="cls-4" d="M85.61,43.5h63.67c5.43,0,9.83,4.4,9.83,9.83V200.15c0,5.43-4.4,9.83-9.83,9.83H76.98c-5.43,0-9.83-4.4-9.83-9.83V83.88"/>
  <rect class="cls-4" x="101.64" y="48.87" width="22.99" height="5.14" rx="2.24" ry="2.24"/>
  <circle class="cls-4" cx="117.59" cy="78.95" r="10.41"/>
  <path class="cls-4" d="M95.82,146v-43.78c0-.13,0-.26,.02-.39,.13-1.2,.64-4.26,3.17-6.94,2.81-2.99,6.29-3.56,7.47-3.68,.13-.01,.25-.02,.38-.02h21.15c.75,0,4.73,.11,7.9,3.34,3.09,3.15,3.2,6.99,3.2,7.77v42.37c0,1.59-.99,3.06-2.5,3.55-.49,.16-1.02,.22-1.54,.17-.28-.03-.54-.08-.78-.16-1.51-.48-2.49-1.95-2.49-3.54v-26.08c.09-1.01-.51-1.78-1.05-1.83-.59-.06-1.41,.68-1.38,1.83v65.93c0,.37-.04,.73-.16,1.08-.7,2.11-2.71,3.57-4.95,3.52-2.15-.04-4.04-1.46-4.73-3.48-.12-.36-.17-.75-.17-1.13v-38.24c-.06-1.45-1.07-2.32-1.71-2.22-.59,.08-1.21,1.01-1.13,2.22v38.26c0,.37-.05,.74-.16,1.1-.68,2.1-2.56,3.61-4.72,3.74-2.39,.14-4.62-1.42-5.37-3.76-.11-.35-.16-.71-.16-1.08V118.29c.05-1-.68-1.67-1.2-1.62-.49,.04-1.05,.72-.96,1.62v26.31c0,1.35-.7,2.63-1.89,3.27-.78,.41-1.66,.61-2.55,.54-2.36-.19-3.55-2.15-3.67-2.34v-.03l-.02-.04Z"/>
  <circle class="cls-4" cx="121.46" cy="78.95" r="3.23"/>
  <circle class="cls-4" cx="118.99" cy="107.24" r="3.23"/>
  <circle class="cls-4" cx="124.03" cy="161.54" r="3.23"/>
  <line class="cls-4" x1="124.69" y1="78.95" x2="168.57" y2="78.95"/>
  <line class="cls-4" x1="122.22" y1="107.24" x2="168.57" y2="126.74"/>
  <line class="cls-4" x1="127.26" y1="161.54" x2="168.57" y2="175.48"/>
  <rect class="cls-4" x="168.57" y="62.94" width="34.62" height="34.62" rx="15.11" ry="15.11"/>
  <rect class="cls-4" x="168.57" y="110.98" width="34.62" height="34.62" rx="15.11" ry="15.11"/>
  <rect class="cls-4" x="168.57" y="159.03" width="34.62" height="34.62" rx="15.11" ry="15.11"/>
  <g>
    <line class="cls-2" x1="52.79" y1="67.36" x2="52.79" y2="73.39"/>
    <line class="cls-2" x1="72.53" y1="67.36" x2="72.53" y2="71.65"/>
    <circle class="cls-2" cx="52.79" cy="75.89" r="2.14"/>
    <path class="cls-2" d="M54.03,47.86s-.99-8.01,4.57-10.09c5.56-2.09,9.35,.44,9.35,.44,0,0,1.2,2.58,2.95,3.92,1.61,1.24,.96,6.9,0,7.1-.84,.18-3.39-1.29-3.83-3.4-.07-.33-.45-.46-.69-.23-.98,.94-2.99,2.5-5.3,2.25-3.27-.36-1.53-1.31-7.05,0h0Z"/>
    <path class="cls-2" d="M54.08,47.04l.47,2.82s-1.19,.55-1.23,1.52,1.63,3.5,1.63,3.5c0,0,1.08,7.77,7.97,8.13s7.17-6.45,7.17-6.45c0,0,.26-2.62,1.22-2.94s.93-3.04,.23-3.41-.33,.33-.65-.35,.58-1.4,.58-1.4"/>
    <path class="cls-2" d="M68.07,66.67s6.08-.78,10.47,2.47"/>
    <path class="cls-2" d="M68.83,65.17l-.77,1.51-2.89,5.71-3.68,7.27,.7-4.16-1.74-3.2-4.01-7.36v1.54s-.64-.09-6.4,.89c-5.77,.98-6.31,5.99-6.31,5.99l-.41,2.64"/>
    <polyline class="cls-2" points="60.46 72.29 64.07 66.13 61.36 66.13 65.18 72.38"/>
    <path class="cls-2" d="M71.1,78.01c-1.17,.21-1.7-1.45-1.7-1.45v-3.35c0-.61,.43-1.13,1.02-1.24l1.97-.39,1.97,.39c.59,.12,1.02,.64,1.02,1.24v3.26s.28,1.14-1.26,1.47"/>
  </g>
  <path class="cls-3" d="M79.77,78.42c-4.5,4.18-9.98,5.82-17.09,5.82-14.81,0-26.82-12-26.82-26.81s12.01-26.83,26.82-26.83,26.83,12.01,26.83,26.83c0,1.39,0,2.27-.09,3.18"/>
  <g>
    <path class="cls-2" d="M89.46,80.15l-.06,.04c-.08,.04-.16,.09-.24,.13-.17,.08-.34,.16-.53,.22-.02,0-.05,.02-.07,.02-.17,.05-.35,.1-.54,.13-.02,0-.04,0-.06,.01h-.02c-1.03,.17-3.43-1.74-4.13-2.5l-.8-.88c-.29-.37,0-.74,0-.74,0,0,1.92-1.72,2.5-2.24,.58-.53,.98,0,.98,0,.38,.38,.77,.57,1.14,.66,.18,.04,.35,.06,.51,.06h.1c.18,0,.34-.03,.48-.07,.09-.02,.17-.04,.24-.07,.19-.07,.31-.14,.31-.14l1.82-1.82,.29-.29,.34-.34,.58-.58c.08-.09,.15-.17,.21-.26,.69-.97,0-1.94-.43-2.34-.48-.43,.03-.95,.03-.95,0,0,1.44-1.63,2.09-2.33,.65-.69,1.15-.06,1.15-.06,.25,.24,.5,.48,.74,.72,.5,.49,.98,.97,1.37,1.54,.77,1.13,.77,2.14,.74,2.3-.17,.89-.56,1.5-.86,1.95-.13,.19-.26,.38-.39,.57-.18,.25-.36,.5-.54,.74-.12,.16-.25,.32-.37,.48-.02,.03-.04,.06-.07,.09-.08,.1-.16,.2-.25,.3-.03,.05-.07,.09-.11,.13-.08,.1-.16,.2-.25,.29-.61,.72-1.26,1.41-1.94,2.06-.15,.15-.31,.3-.46,.44-.74,.68-1.53,1.33-2.34,1.94-.1,.08-.21,.15-.32,.23-.02,.02-.05,.03-.07,.05,0,0-.03,.02-.05,.03-.15,.11-.32,.23-.5,.34l-.03,.02c-.07,.04-.24,.15-.24,.15"/>
    <circle class="cls-2" cx="89.86" cy="72.38" r="11.77"/>
  </g>
  <path class="cls-4" d="M185.88,136.47c2.65-2.52,5.3-5.04,7.96-7.56,2.23-2.3,1.96-5.93-.17-7.71-2.22-1.85-6.02-1.34-7.79,1.49-1.77-2.83-5.57-3.34-7.79-1.49-2.13,1.78-2.4,5.41-.17,7.71,2.65,2.52,5.3,5.04,7.96,7.56h0Z"/>
  <path class="cls-4" d="M178.06,81.33c-.97,1.97-.51,4.37,1.11,5.85,1.63,1.49,4.07,1.71,5.95,.55,3.18-3.51,6.36-7.02,9.54-10.53,.86-2.06,.29-4.43-1.38-5.84-1.57-1.33-3.84-1.55-5.68-.55-3.18,3.51-6.36,7.02-9.54,10.53h0Z"/>
  <line class="cls-4" x1="182.99" y1="75.89" x2="190.03" y2="82.31"/>
  <polygon class="cls-1" points="179.57 165.09 182.23 183.84 188.43 183.84 190.87 165.09 179.57 165.09"/>
  <path class="cls-1" d="M187.53,183.84v1.39c0,1.05-.85,1.9-1.9,1.9h-.82c-1.05,0-1.9-.85-1.9-1.9v-1.71"/>
  <line class="cls-1" x1="180.38" y1="170.79" x2="190.13" y2="170.79"/>
  <line class="cls-1" x1="181.56" y1="179.13" x2="189.05" y2="179.13"/>
  <line class="cls-4" x1="99.25" y1="205.03" x2="127.01" y2="205.03"/>
</svg>