<?xml version="1.0" encoding="UTF-8"?>
<svg id="Layer_1" data-name="Layer 1" xmlns="http://www.w3.org/2000/svg" viewBox="0 0 237.52 240.93">
  <defs>
    <style>
      .cls-1 {
        stroke-miterlimit: 10;
      }

      .cls-1, .cls-2 {
        fill: none;
        stroke: #ffffff;
        stroke-width: 4px;
      }

      .cls-2 {
        stroke-linecap: round;
        stroke-linejoin: round;
      }
    </style>
  </defs>
  <g>
    <path class="cls-1" d="M149.04,60.63c-1.2-3.19-4.42-5.53-8.01-5.45-1.2,.03-2.4,.02-3.61,.01-.84,0-1.59-.52-1.92-1.31-1.73-4.17-5.5-6.69-10.03-6.71-1.78,0-3.56-.02-5.34,0-4.07,.05-7.12,1.91-9.22,5.34-.27,.44-.48,.91-.7,1.41-.33,.76-1.08,1.26-1.91,1.26h-4.08c-4.31,.01-8.1,3.56-8.11,7.95-.01,4.15,3.68,8.09,7.9,8.09,12.59,0,25.18,.09,37.77,0,3.74-.03,7.07-3.02,7.66-6.68,.22-1.37,.06-2.7-.4-3.91h0Z"/>
    <polyline class="cls-2" points="170.97 179.45 170.97 122.15 170.97 108.04"/>
    <line class="cls-2" x1="75.38" y1="182.69" x2="75.38" y2="182.68"/>
    <path class="cls-2" d="M74.77,133.71V68.6c0-3.02,2.44-5.46,5.46-5.46h15.89"/>
    <line class="cls-2" x1="154.21" y1="185.65" x2="83.95" y2="185.65"/>
    <path class="cls-2" d="M149.63,63.14h15.88c3.01,0,5.46,2.44,5.46,5.46v34.39"/>
    <circle class="cls-1" cx="99.05" cy="127.35" r="8.61"/>
    <circle class="cls-1" cx="99.05" cy="159.46" r="8.61"/>
    <g>
      <line class="cls-2" x1="121.06" y1="89.85" x2="155.76" y2="89.85"/>
      <line class="cls-2" x1="121.06" y1="100.62" x2="141.19" y2="100.62"/>
    </g>
    <g>
      <line class="cls-2" x1="121.06" y1="121.96" x2="155.76" y2="121.96"/>
      <line class="cls-2" x1="121.06" y1="132.73" x2="141.19" y2="132.73"/>
    </g>
    <g>
      <line class="cls-2" x1="121.06" y1="154.07" x2="155.76" y2="154.07"/>
      <line class="cls-2" x1="121.06" y1="164.84" x2="141.19" y2="164.84"/>
    </g>
    <polyline class="cls-2" points="90.93 96.71 97.13 102.99 107.17 87.48"/>
  </g>
  <circle class="cls-1" cx="48.73" cy="63.14" r="17.36"/>
  <circle class="cls-1" cx="208.25" cy="140.35" r="17.43"/>
  <g>
    <g>
      <line class="cls-2" x1="201.39" y1="133.71" x2="201.39" y2="136.75"/>
      <line class="cls-2" x1="215.11" y1="133.71" x2="215.11" y2="136.75"/>
    </g>
    <path class="cls-2" d="M203.55,146.99c.27-.29,2-2.12,4.81-2.08,2.71,.03,4.37,1.78,4.65,2.08"/>
  </g>
  <g>
    <g>
      <line class="cls-2" x1="41.9" y1="56.85" x2="41.9" y2="59.87"/>
      <line class="cls-2" x1="55.56" y1="56.85" x2="55.56" y2="59.87"/>
    </g>
    <path class="cls-2" d="M44.05,67.75c.45,.37,2.44,1.88,5.27,1.67,2.15-.16,3.61-1.23,4.14-1.67"/>
  </g>
  <g>
    <rect class="cls-2" x="42.77" y="157.55" width="10.06" height="27.41" rx="4.28" ry="4.28"/>
    <path class="cls-2" d="M52.82,160.09s10.29-2.52,10.46-12.49c.23-1.53,1.44-2.7,2.86-2.86,1.66-.18,3.29,1.05,3.59,2.86,.2,.85,.37,1.77,.49,2.77,.36,3.1,.04,5.8-.41,7.85h6.53s4.08-.65,5.23,2.94c1.14,3.59-.98,5.64-1.72,6.21-.53,.41-1.52,5.9-2.04,8.95-.16,.94-.25,1.89-.32,2.85-.12,1.52-1.01,4.54-6.21,4.3-4.79-.23-9.92-.14-12.65-.07-1.3,.04-2.57-.33-3.65-1.04-.72-.48-1.44-.95-2.16-1.43"/>
  </g>
  <g>
    <rect class="cls-2" x="162.05" y="122.15" width="17.84" height="72.92"/>
    <path class="cls-2" d="M162.05,195.08h17.84v7.28c0,2.6-2.11,4.71-4.71,4.71h-8.43c-2.6,0-4.71-2.11-4.71-4.71v-7.28h0Z"/>
    <polyline class="cls-2" points="162.05 122.15 170.97 108.04 179.89 122.15"/>
    <line class="cls-2" x1="170.97" y1="195.08" x2="170.97" y2="122.15"/>
  </g>
  <path class="cls-2" d="M37.19,86.34c-3.31,9.41-5.11,19.53-5.11,30.07,0,13.06,2.76,25.49,7.74,36.71"/>
  <line class="cls-2" x1="43.21" y1="159.96" x2="43.21" y2="159.95"/>
  <path class="cls-2" d="M70.6,190.59c14.76,10.41,32.76,16.52,52.19,16.52,11.05,0,21.63-1.98,31.42-5.59"/>
  <path class="cls-2" d="M200.36,163.44c-3.43,5.64-7.45,10.87-11.99,15.61"/>
  <path class="cls-2" d="M65.94,45.73c15.55-12.54,35.33-20.03,56.85-20.03,49.65,0,89.98,39.9,90.68,89.39"/>
</svg>