<?xml version="1.0" encoding="UTF-8"?>
<svg id="Layer_1" data-name="Layer 1" xmlns="http://www.w3.org/2000/svg" viewBox="0 0 247.3 231.66">
  <defs>
    <style>
      .cls-1 {
        fill: none;
        stroke: #2e735b;
        stroke-linecap: round;
        stroke-linejoin: round;
        stroke-width: 4px;
      }
    </style>
  </defs>
  <g>
    <polyline class="cls-1" points="57.73 138.88 46.35 134.73 46.35 191.42 91.22 207.75 91.22 151.06 79.28 146.72 79.27 146.72"/>
    <line class="cls-1" x1="121.99" y1="196.56" x2="121.99" y2="196.55"/>
    <line class="cls-1" x1="107.62" y1="201.78" x2="91.22" y2="207.75"/>
    <polyline class="cls-1" points="91.22 151.06 136.09 134.73 136.09 181.22"/>
    <line class="cls-1" x1="46.35" y1="134.09" x2="91.22" y2="117.76"/>
    <line class="cls-1" x1="136.09" y1="134.09" x2="91.22" y2="117.76"/>
    <polyline class="cls-1" points="104.63 122.65 57.73 138.87 57.73 164.39 68.03 159.81 79.27 171.24 79.27 146.72 125.25 130.15"/>
    <line class="cls-1" x1="68.79" y1="179.93" x2="84.62" y2="185.81"/>
    <line class="cls-1" x1="84.63" y1="193.86" x2="79.4" y2="191.91"/>
    <line class="cls-1" x1="74.3" y1="190.03" x2="68.79" y2="187.98"/>
    <polyline class="cls-1" points="115.58 191.16 122 196.55 129.43 185.81"/>
    <circle class="cls-1" cx="121.66" cy="191.23" r="17.57"/>
  </g>
  <g>
    <polyline class="cls-1" points="153.38 159.15 145.48 156.28 145.48 195.6 176.6 206.93 176.6 167.61 168.32 164.59 168.32 164.59"/>
    <line class="cls-1" x1="207.73" y1="195.59" x2="176.61" y2="206.92"/>
    <polyline class="cls-1" points="176.61 167.6 207.73 156.28 207.73 195.59"/>
    <line class="cls-1" x1="145.48" y1="155.83" x2="176.61" y2="144.51"/>
    <line class="cls-1" x1="207.73" y1="155.83" x2="176.61" y2="144.51"/>
    <polyline class="cls-1" points="185.91 147.9 153.38 159.15 153.38 176.85 160.52 173.67 168.32 181.6 168.32 164.59 200.21 153.1"/>
    <line class="cls-1" x1="161.04" y1="187.63" x2="172.03" y2="191.7"/>
    <line class="cls-1" x1="172.03" y1="197.29" x2="168.41" y2="195.94"/>
    <line class="cls-1" x1="164.87" y1="194.63" x2="161.05" y2="193.21"/>
  </g>
  <g>
    <path class="cls-1" d="M143.23,105.8v5.19c0,1-.19,1.96-.55,2.85-.72,1.83-2.13,3.34-4,4.18-.95,.42-2.06,.86-3.36,1.29-2.88,.94-6.63,1.8-11.46,2.25-5.57,.52-9.18,2.12-11.53,3.88"/>
    <path class="cls-1" d="M201.77,152.64v-19.84c0-1.33-.33-2.65-1-3.8-1.55-2.64-5.4-6.56-14.76-7.44-7-.66-11.76-2.16-14.82-3.54-2.77-1.25-4.55-3.99-4.55-7.03v-5.2"/>
    <polyline class="cls-1" points="142.69 113.84 152.84 120.06 145.19 126.07 135.33 119.32"/>
    <polyline class="cls-1" points="166.34 113.84 156.19 120.06 163.84 126.07 173.7 119.32"/>
    <line class="cls-1" x1="154.49" y1="142.28" x2="154.49" y2="118.26"/>
    <path class="cls-1" d="M175,80.43v3.3c1.52,.34,2.62,1.64,2.69,3.15,.07,1.61-1.06,3.09-2.69,3.45-.8,2.69-2.7,6.41-5.5,10.64-3.51,5.3-8.54,10.55-14.61,10.38h-.39c-12.15,.35-20.12-21.02-20.12-21.02-1.36-.53-2.25-1.85-2.25-3.3s.9-2.77,2.25-3.3v-3.3"/>
    <path class="cls-1" d="M176.72,80.43c-.07-.93,0-1.9,0-2.83v-11.52c0-.95,.04-1.79-.2-2.71-1.6-6.08-6-11.13-11.75-13.64-1.01-.44-2.16-.98-3.28-.97h-12.64c-.75,0-1.38-.02-2.09,.21-.58,.19-1.15,.4-1.71,.63-4.7,1.96-8.6,5.66-10.79,10.26-2.64,5.54-1.49,12.49-1.49,18.48,0,.66,.12,1.45-.01,2.1,3.73-1.55,7.45-3.16,11.2-4.66,2.18-.87,4.38-1.76,6.64-2.43,2.13-.63,4.21-.65,6.35-.06,2.86,.8,5.61,1.96,8.39,2.98,3.79,1.39,7.56,2.87,11.38,4.17h0Z"/>
    <path class="cls-1" d="M176.71,72.14c-2.13-1.02-4.27-2.05-6.4-3.08"/>
    <path class="cls-1" d="M132.77,72.14l12.05-6.19c2.07-.76,5.4-1.69,9.57-1.69s7.4,.93,9.45,1.69c.77,.37,1.54,.74,2.31,1.11"/>
  </g>
  <line class="cls-1" x1="184.2" y1="173.66" x2="197.65" y2="169.14"/>
  <line class="cls-1" x1="184.28" y1="180.56" x2="195.4" y2="176.94"/>
  <path class="cls-1" d="M210.91,144.97c3.22-9.21,4.96-19.12,4.96-29.43,0-49.41-40.05-89.46-89.45-89.46S36.96,66.13,36.96,115.54c0,8.24,1.11,16.22,3.21,23.8"/>
</svg>