<?xml version="1.0" encoding="UTF-8"?>
<svg id="Layer_1" data-name="Layer 1" xmlns="http://www.w3.org/2000/svg" viewBox="0 0 247.3 231.66">
  <defs>
    <style>
      .cls-1 {
        fill: none;
        stroke: #2e735b;
        stroke-linecap: round;
        stroke-linejoin: round;
        stroke-width: 4px;
      }
    </style>
  </defs>
  <g>
    <path class="cls-1" d="M136.47,159.72h12.14c2.21,0,4,1.79,4,4v19.29c0,2.21-1.79,4-4,4h-12.14"/>
    <path class="cls-1" d="M152.62,163.72s18.43-4.35,30.52,5.73h11.23c2.87-.09,5.23,2.03,5.47,4.54,.27,2.83-2.21,5.61-5.47,5.54h-19.01"/>
    <path class="cls-1" d="M205.02,174.92l12.38-3.76c2.5-.75,4.39-.25,5.04,1.39,.61,1.55-.36,3.04-2.45,4.39-7.08,3.9-14.16,7.8-21.24,11.69-4.4,2.42-9.29,3.89-14.3,4.06-3.2,.11-6.18-.49-9.62-1.65-7.47-2.51-14.81-5.36-22.22-8.03"/>
    <path class="cls-1" d="M183.64,145.89c-3.05,3.22-8.97,2.35-12.73-1.64-3.58-3.79-4.17-9.31-1.11-12.2,8.01-8.01,16.03-16.03,24.04-24.04,3.52-2.76,9.36-1.39,12.74,2.59,2.94,3.46,3.51,8.27,1.1,11.25-8.01,8.01-16.03,16.03-24.04,24.04h0Z"/>
    <line class="cls-1" x1="182.46" y1="119.38" x2="196.3" y2="133.22"/>
  </g>
  <g>
    <polyline class="cls-1" points="110.17 139.23 110.17 192.7 28.87 192.7 28.87 85.74 110.17 85.74 110.17 98.33"/>
    <rect class="cls-1" x="83.99" y="98.32" width="40.9" height="40.9"/>
    <circle class="cls-1" cx="104.44" cy="118.77" r="9.26"/>
    <path class="cls-1" d="M92.05,139.22s-2.36-10.63,7.38-12.68"/>
    <path class="cls-1" d="M117.26,139.22s2.36-10.63-7.38-12.68"/>
    <line class="cls-1" x1="76.19" y1="111.16" x2="62.6" y2="111.16"/>
    <line class="cls-1" x1="76.19" y1="122.24" x2="47.69" y2="122.24"/>
    <rect class="cls-1" x="60.33" y="149.41" width="39.09" height="9.82"/>
    <polyline class="cls-1" points="49.76 174.33 70.9 174.33 75.02 166.87 80.47 182.56 87.6 174.71 98.84 174.71"/>
  </g>
  <g>
    <path class="cls-1" d="M127.22,75.66c-.47,.37-1.13,.37-1.61,0-3.79-2.98-8.92-7.79-13.28-14.9-5.79-9.43-7.49-18.48-8.05-23.89-.07-.65,.36-1.23,.99-1.38,2.97-.7,6.33-1.69,9.93-3.12,4.13-1.63,7.65-3.47,10.54-5.22,.41-.25,.91-.25,1.32,0,2.9,1.75,6.42,3.59,10.53,5.22,3.6,1.42,6.97,2.42,9.94,3.12,.63,.15,1.06,.73,.99,1.38-.56,5.41-2.27,14.45-8.05,23.89-4.36,7.1-9.49,11.92-13.28,14.9h.03Z"/>
    <path class="cls-1" d="M127.29,84c-.51,.4-1.23,.4-1.74,0-5.1-3.98-12.07-10.47-17.98-20.11-7.85-12.79-10.09-25.03-10.81-32.25-.07-.72,.4-1.37,1.1-1.53,4.04-.94,8.63-2.29,13.55-4.24,5.6-2.21,10.36-4.71,14.27-7.09,.46-.28,1.01-.28,1.47,0,3.91,2.37,8.67,4.88,14.26,7.09,4.93,1.95,9.52,3.29,13.57,4.24,.7,.16,1.18,.81,1.1,1.53-.72,7.21-2.97,19.46-10.81,32.25-5.91,9.64-12.89,16.13-17.98,20.11Z"/>
    <polygon class="cls-1" points="130.55 52.38 130.55 58.98 122.29 58.98 122.29 52.38 115.68 52.38 115.68 44.12 122.29 44.12 122.29 37.51 130.55 37.51 130.55 44.12 137.15 44.12 137.15 52.38 130.55 52.38"/>
  </g>
  <path class="cls-1" d="M45.6,77.91c9.26-18.11,24.44-32.7,42.99-41.2"/>
  <path class="cls-1" d="M165.21,37.14c30.69,14.53,51.91,45.79,51.91,82.01,0,17.44-4.92,33.73-13.45,47.56"/>
  <path class="cls-1" d="M83.84,199.26c12.7,6.77,27.19,10.6,42.58,10.6s31.12-4.17,44.19-11.49"/>
  <path class="cls-1" d="M129.85,28.51h-.01c-1.14-.05-2.27-.07-3.42-.07s-2.29,.02-3.43,.07h-.01"/>
</svg>