<?xml version="1.0" encoding="UTF-8"?>
<svg id="Layer_1" data-name="Layer 1" xmlns="http://www.w3.org/2000/svg" viewBox="0 0 237.52 240.93">
  <defs>
    <style>
      .cls-1 {
        stroke-width: 3px;
      }

      .cls-1, .cls-2, .cls-3, .cls-4, .cls-5 {
        fill: none;
        stroke: #2e735b;
      }

      .cls-1, .cls-4 {
        stroke-miterlimit: 10;
      }

      .cls-2 {
        stroke-width: 2px;
      }

      .cls-2, .cls-5 {
        stroke-linecap: round;
        stroke-linejoin: round;
      }

      .cls-3 {
        stroke-miterlimit: 10;
        stroke-width: 4px;
      }

      .cls-4, .cls-5 {
        stroke-width: 4px;
      }
    </style>
  </defs>
  <line class="cls-5" x1="70.35" y1="167.56" x2="70.35" y2="148.57"/>
  <path class="cls-5" d="M70.35,94.64v-22.55c0-2.5,2.03-4.54,4.53-4.54h94.71c2.5,0,4.53,2.04,4.53,4.54v124.04c0,2.51-2.03,4.54-4.53,4.54H74.88c-2.5,0-4.53-2.03-4.53-4.54v-11.1"/>
  <line class="cls-5" x1="70.35" y1="131.1" x2="70.35" y2="112.11"/>
  <path class="cls-5" d="M99.62,67.56h45.22v6.83c0,1.82-1.48,3.3-3.3,3.3h-38.62c-1.82,0-3.3-1.48-3.3-3.3v-6.83h0Z"/>
  <rect class="cls-5" x="43.42" y="94.64" width="87.51" height="17.47" rx="4.33" ry="4.33"/>
  <rect class="cls-5" x="43.42" y="131.1" width="87.51" height="17.47" rx="4.28" ry="4.28"/>
  <rect class="cls-5" x="43.42" y="167.56" width="87.51" height="17.47" rx="4.62" ry="4.62"/>
  <polyline class="cls-1" points="48.95 104.84 56.54 99.81 59.94 106.94 63.07 101.09 68.53 104.05 76.75 99.7 81.99 106.94 88.11 100.66 93.73 105.43 102.41 99.22 105.13 105.6 108.28 102.71 111.94 105.43 117.05 105.43"/>
  <line class="cls-1" x1="120.07" y1="105.43" x2="124.4" y2="105.43"/>
  <path class="cls-1" d="M48.95,141.31l4.94-4.25c1.59-1.36,3.96-1.27,5.43,.23l4.16,4.23c1.52,1.54,3.92,1.8,5.73,.61l5.17-3.38c2.18-1.43,4.92-1.73,7.36-.8l8.56,3.25c1.16,.44,2.45,.42,3.59-.07l8.99-3.79c1.33-.56,2.82-.6,4.18-.12l10.9,3.9c1.36,.49,2.85,.46,4.19-.08l4.69-1.88"/>
  <path class="cls-1" d="M49.07,181.06c-.09-2.5,1.1-5.02,3.09-6.54,.68-.52,1.51-.93,2.35-.8,1.7,.28,2.23,2.39,2.82,4.01,.56,1.55,1.7,3.08,3.33,3.3,1.52,.21,2.96-.82,3.87-2.05s1.45-2.7,2.29-3.99c.31-.48,.69-.95,1.19-1.23,1.14-.61,2.61-.01,3.46,.97s1.25,2.26,1.75,3.45c.75,1.75,1.93,3.54,4.38,3.2,.68-.09,1.33-.37,1.89-.78,1.92-1.38,2.7-3.58,3.75-5.58,.51-.97,1.13-1.95,1.91-2.7,.92-.88,2.43-.86,3.33,.04,1.86,1.86,2.87,4.66,4.5,6.76,.46,.59,1.14,1.02,1.89,1.03,1.5,.01,1.94-1.36,2.46-2.47,.58-1.23,1.45-2.33,2.52-3.17,.23-.19,.5-.37,.8-.36,.26,0,.5,.15,.7,.31,1.58,1.3,1.82,4.04,3.76,4.69,1.09,.37,2.32-.16,3.15-.95s1.38-1.84,2.03-2.79c.68-1.01,1.49-1.94,2.38-2.77,.36-.33,.75-.65,1.21-.77,.65-.18,1.35,.06,1.95,.38,1.98,1.06,3.29,3.01,4.65,4.81,.3,.4,.62,.81,1.07,1.03,1.16,.6,2.49-.22,3.63-.85"/>
  <g>
    <path class="cls-2" d="M150.11,177.35c.31-.88,1.07-1.49,2.01-1.65,1.1-.19,2.47,.03,3.26,.87,.48,.51,.78,1.17,.85,1.86,.08,.76-.02,1.53,.02,2.29,.04,.69,.24,1.35,.7,1.88,.21,.24,.45,.44,.72,.59,.31,.17,.66,.27,1.01,.34s.7,.14,1.03,.26c.29,.11,.55,.28,.78,.48,.5,.44,.84,1.02,1.26,1.52s.98,1,1.67,1.03,1.19-.43,1.46-.99c.31-.63,.33-1.35,.32-2.04,0-.8-.05-1.59-.12-2.38-.14-1.58-.39-3.14-.76-4.68s-.8-2.94-1.59-4.23c-.38-.63-.86-1.19-1.4-1.69-.26-.24-.53-.46-.79-.69s-.53-.43-.82-.6c-.56-.33-1.2-.46-1.78-.12s-.9,.97-1.15,1.58c-.21,.51-.4,1.08-.76,1.52-.14,.17-.32,.33-.54,.35-.26,.03-.49-.14-.65-.33-.35-.41-.44-1-.5-1.52-.09-.8-.02-1.6,.06-2.4,.04-.4,.07-.79,.1-1.19,.01-.17,.03-.35,0-.52s-.11-.35-.21-.5c-.33-.51-.98-.76-1.57-.6-.54,.15-.95,.66-1.01,1.21v-.05c-.04,.14,0,.3,0,.44,.01,.17,.02,.34,.04,.51,.03,.34,.06,.68,.09,1.03,.06,.68,.1,1.37,.02,2.05-.06,.55-.17,1.15-.57,1.56-.19,.2-.46,.33-.74,.22-.24-.1-.41-.33-.54-.54-.54-.84-.68-1.94-1.44-2.64-.44-.4-1.02-.53-1.59-.34s-1.03,.59-1.48,.96c-.55,.46-1.08,.93-1.52,1.49-1.38,1.75-1.94,3.99-2.36,6.14-.31,1.56-.51,3.15-.59,4.74-.04,.78-.1,1.57,.02,2.34,.1,.59,.34,1.2,.83,1.58,.57,.43,1.27,.33,1.84-.05s.95-.97,1.36-1.51c.22-.29,.45-.57,.73-.8s.58-.36,.92-.46c.66-.19,1.37-.24,1.96-.62,.55-.36,.96-.92,1.14-1.54,.11-.37,.13-.75,.14-1.13,.01-.89-.15-1.83,.04-2.73,.02-.11,.05-.21,.09-.31h0Z"/>
    <path class="cls-2" d="M143.37,181.29s.62,2.61,2.75,2.67"/>
    <path class="cls-2" d="M142.04,176.07s.77,2.41,2.25,2.18,2.74,.27,3.1,.93"/>
    <path class="cls-2" d="M147.05,176.07s-1.75,.49-2.53,2.18"/>
    <path class="cls-2" d="M159.29,176.07s1.35,.39,2.17,1.73,2.61-.22,2.77-1.46"/>
    <path class="cls-2" d="M158.89,179.49s.82-1.71,2.74-1.47"/>
    <path class="cls-2" d="M162.8,180.96s-.4,2.76-2.68,2.99"/>
    <line class="cls-2" x1="149.94" y1="179.18" x2="149.94" y2="174.93"/>
    <line class="cls-2" x1="156.19" y1="178.22" x2="156.27" y2="175.01"/>
  </g>
  <g>
    <path class="cls-2" d="M146.14,143.52c-2.26,.28-4.65-1.17-5.2-3.22-.61-2.27,.82-4.77,3.27-5.42,.11-.35,.56-1.69,1.92-2.46,1.39-.79,3.19-.66,4.62,.31,.26-.24,1.51-1.34,3.4-1.28,2.22,.07,3.51,1.68,3.68,1.9,1.77-.56,3.6,.09,4.55,1.44,.52,.74,.74,1.84,.32,3.48,0,0-.37,1.86-3.01,.76,0,0-.02,0-.03-.01-1.01-.43-1.54-1.54-1.24-2.6,.03-.12,.07-.25,.11-.39h0"/>
    <path class="cls-2" d="M153.61,139.58c-.91-.69-2.08-.83-3-.35-.86,.45-1.18,1.28-1.26,1.51-.15-.04-1.38-.32-2.34,.48-.88,.73-.99,1.94-.79,2.67,.42,1.5,2.62,2.6,5.4,2.23,.79,.65,2.35,1.73,4.34,1.76,.63,0,1.39,0,1.97-.55,.76-.72,.65-1.85,.63-2.06"/>
    <path class="cls-2" d="M157.94,147.32s4.04,2.8,4.64-1.44-3.82-4.24-3.82-4.24"/>
    <path class="cls-2" d="M162.8,137.85c1.6,.61,2.65,2.17,2.62,3.88-.04,1.71-1.16,3.23-2.79,3.76"/>
    <path class="cls-2" d="M151.62,141.4s1.04,.38,1.34,1.29c.16,.48,.12,1.1-.39,1.89"/>
    <path class="cls-2" d="M156.79,144.58s-.62-3.23-3.83-1.89"/>
    <path class="cls-2" d="M152.97,133.31s1.74,2.19-.8,3.29"/>
    <path class="cls-2" d="M155.95,139.33s.07-3.69-2.46-4"/>
    <path class="cls-2" d="M148.56,133.85s-1.65,1.76,.74,3.14"/>
    <path class="cls-2" d="M143.21,140.09s1.22-2.56,3.16-.42"/>
    <path class="cls-2" d="M148.01,135.42s-3.17,.01-3.22,3.52"/>
  </g>
  <path class="cls-2" d="M153.11,111.55c2.65-2.52,5.29-5.03,7.94-7.55,2.23-2.3,1.96-5.92-.17-7.69-2.21-1.85-6.01-1.34-7.78,1.49-1.77-2.83-5.56-3.34-7.78-1.49-2.13,1.77-2.4,5.4-.17,7.69,2.65,2.52,5.29,5.03,7.94,7.55h.02Z"/>
  <circle class="cls-4" cx="203.55" cy="141.4" r="9.39"/>
  <circle class="cls-4" cx="203.55" cy="141.4" r="4.12"/>
  <g>
    <path class="cls-4" d="M112.48,17.49c4.88-4.77,11.76,1.1,11.76,1.1l14.17,14.71s8.64,4.4,7.66,12.56c-.1,.86-.45,1.65-1,2.28-5.25,6.07-14.01,1.96-14.01,1.96l-19.45-2.63s-8.72-1.4-8.02-9.65"/>
    <ellipse class="cls-3" cx="111.08" cy="20.07" rx="2.63" ry="1.59" transform="translate(50.52 115.33) rotate(-67.8)"/>
    <ellipse class="cls-3" cx="104.43" cy="35.3" rx="2.63" ry="1.59" transform="translate(32.29 118.65) rotate(-67.8)"/>
  </g>
  <path class="cls-4" d="M146.07,45.86c7.8,2.38,21.94,10.9,25.54,18.22,5.14,10.45-2.66,27.96,5.32,36.44,2.07,2.2,4.87,3.53,7.44,5.11,9.75,6.02,16.59,16.54,18.14,27.9"/>
  <path class="cls-5" d="M142.04,24.25c40.85,8.83,71.45,45.17,71.45,88.66,0,3.84-.24,7.63-.71,11.34"/>
  <path class="cls-5" d="M44.54,158.82c-7.92-13.46-12.46-29.16-12.46-45.91,0-41.34,27.65-76.21,65.46-87.15"/>
  <path class="cls-5" d="M180.52,182.88c7.48-6.19,13.96-13.54,19.13-21.8"/>
</svg>